<svg width="16" height="16" viewBox="0 0 16 16" fill="none" xmlns="http://www.w3.org/2000/svg">
<g clip-path="url(#clip0_11793_679)">
<path d="M15.8074 10.8605L10.3608 5.41386C10.0511 5.10344 9.6833 4.85716 9.27833 4.68911C8.87337 4.52107 8.43922 4.43457 8.00078 4.43457C7.56233 4.43457 7.12819 4.52107 6.72322 4.68911C6.31825 4.85716 5.95041 5.10344 5.64078 5.41386L0.194108 10.8605C0.0685721 10.9861 -0.00195312 11.1563 -0.00195312 11.3339C-0.00195313 11.5114 0.0685721 11.6817 0.194108 11.8072C0.319644 11.9327 0.489907 12.0033 0.667441 12.0033C0.844976 12.0033 1.01524 11.9327 1.14077 11.8072L6.58744 6.36053C6.96244 5.98599 7.47077 5.77562 8.00078 5.77562C8.53078 5.77562 9.03911 5.98599 9.41411 6.36053L14.8608 11.8072C14.9228 11.8697 14.9965 11.9193 15.0777 11.9531C15.159 11.987 15.2461 12.0044 15.3341 12.0044C15.4221 12.0044 15.5093 11.987 15.5905 11.9531C15.6717 11.9193 15.7455 11.8697 15.8074 11.8072C15.8699 11.7452 15.9195 11.6715 15.9534 11.5902C15.9872 11.509 16.0046 11.4219 16.0046 11.3339C16.0046 11.2459 15.9872 11.1587 15.9534 11.0775C15.9195 10.9962 15.8699 10.9225 15.8074 10.8605Z" fill="#113ACA"/>
</g>
<defs>
<clipPath id="clip0_11793_679">
<rect width="16" height="16" fill="white"/>
</clipPath>
</defs>
</svg>
